<svg width="16" height="16" viewBox="0 0 16 16" fill="none" xmlns="http://www.w3.org/2000/svg">
<g id="vuesax/outline/flag">
<g id="flag">
<path id="Vector" d="M3.43335 15.1667C3.16002 15.1667 2.93335 14.94 2.93335 14.6667V1.33333C2.93335 1.05999 3.16002 0.833328 3.43335 0.833328C3.70668 0.833328 3.93335 1.05999 3.93335 1.33333V14.6667C3.93335 14.94 3.70668 15.1667 3.43335 15.1667Z" fill="white"/>
<path id="Vector_2" d="M10.9 11.1667H3.43335C3.16002 11.1667 2.93335 10.94 2.93335 10.6667C2.93335 10.3933 3.16002 10.1667 3.43335 10.1667H10.9C11.6267 10.1667 11.9667 9.97334 12.0333 9.80667C12.1 9.64001 12 9.26667 11.48 8.75334L10.68 7.95334C10.3534 7.66667 10.1533 7.23334 10.1333 6.75334C10.1133 6.24667 10.3134 5.74667 10.68 5.38L11.48 4.58001C11.9733 4.08667 12.1267 3.68667 12.0534 3.51334C11.98 3.34001 11.6 3.16667 10.9 3.16667H3.43335C3.15335 3.16667 2.93335 2.94001 2.93335 2.66667C2.93335 2.39334 3.16002 2.16667 3.43335 2.16667H10.9C12.36 2.16667 12.8267 2.77334 12.98 3.13334C13.1267 3.49334 13.2267 4.25334 12.1867 5.29334L11.3867 6.09334C11.22 6.26001 11.1267 6.49334 11.1334 6.72667C11.14 6.92667 11.22 7.10667 11.36 7.23334L12.1867 8.05334C13.2067 9.07334 13.1067 9.83334 12.96 10.2C12.8067 10.5533 12.3334 11.1667 10.9 11.1667Z" fill="white"/>
</g>
</g>
</svg>
