<svg width="30" height="30" viewBox="0 0 30 30" fill="none" xmlns="http://www.w3.org/2000/svg">
<g id="vuesax/bulk/play-circle">
<g id="play-circle">
<path id="Vector" opacity="0.4" d="M14.9625 27.5C21.8661 27.5 27.4625 21.9036 27.4625 15C27.4625 8.09644 21.8661 2.5 14.9625 2.5C8.05896 2.5 2.46252 8.09644 2.46252 15C2.46252 21.9036 8.05896 27.5 14.9625 27.5Z" fill="#664EFF"/>
<path id="Vector_2" d="M18.7125 12.7875L15.0875 10.7C14.1875 10.175 13.1 10.175 12.2 10.7C11.3 11.225 10.7625 12.15 10.7625 13.2V17.3875C10.7625 18.425 11.3 19.3625 12.2 19.8875C12.65 20.15 13.15 20.275 13.6375 20.275C14.1375 20.275 14.625 20.15 15.075 19.8875L18.7 17.8C19.6 17.275 20.1375 16.35 20.1375 15.3C20.1625 14.25 19.625 13.3125 18.7125 12.7875Z" fill="#7E7FD0"/>
</g>
</g>
</svg>
